# xmcd
#
# Track frame offsets:
#	150
#	13317
#	28187
#	37794
#	54108
#	66846
#	88862
#	99758
#	113321
#	124012
#	134686
#	148836
#	179563
#
# Disc length: 2631 seconds
#
# Revision: 0
# Processed by: cddbd v1.5.2PL0 Copyright (c) Steve Scherf et al.
# Submitted via: dBpowerAMP V4.0
#
DISCID=ad0a450d
DTITLE=Roy Hubbs - The Essential Roy Hubbs
DYEAR=2001
DGENRE=Country
TTITLE0=You Lie With Everybody (But Me)
TTITLE1=It's No Time For Lovin'
TTITLE2=Six Down and Six To Go
TTITLE3=(She Offers Me a) Vice
TTITLE4=Weddin' Bells
TTITLE5=Whiskey and Water
TTITLE6=They Say Love's a Cherry
TTITLE7=Forgettin' You Blues
TTITLE8=In TImes of Trouble
TTITLE9=Killer with a Heart of Gold
TTITLE10=(I've Been Searching This) Countryside
TTITLE11=Eyes Wide Open
TTITLE12=Tell Me You'll Be True
EXTD=
EXTT0=
EXTT1=
EXTT2=
EXTT3=
EXTT4=
EXTT5=
EXTT6=
EXTT7=
EXTT8=
EXTT9=
EXTT10=
EXTT11=
EXTT12=
PLAYORDER=
